<?xml version="1.0" encoding="UTF-8"?>
<svg width="662.92" height="361.73" version="1.1" viewBox="0 0 662.9203 361.72705" xmlns="http://www.w3.org/2000/svg" xmlns:cc="http://creativecommons.org/ns#" xmlns:dc="http://purl.org/dc/elements/1.1/" xmlns:rdf="http://www.w3.org/1999/02/22-rdf-syntax-ns#">
<metadata>
<rdf:RDF>
<cc:Work rdf:about="">
<dc:format>image/svg+xml</dc:format>
<dc:type rdf:resource="http://purl.org/dc/dcmitype/StillImage"/>
<dc:title/>
</cc:Work>
</rdf:RDF>
</metadata>
<path d="m662.92 159.44h-303.23v202.29h303.23z" fill="#039" stroke-width="5.3481"/>
<path d="m511.15 181.42 2.8826 8.9794 9.4126-0.0481-7.6478 5.5085 2.9415 8.958-7.5889-5.578-7.5836 5.578 2.9521-8.958-7.6584-5.5085 9.4126 0.0481zm0 134.95 2.8826 8.9473 9.4126-0.0428-7.6478 5.5246 2.9415 8.958-7.5889-5.5674-7.5836 5.5674 2.9521-8.958-7.6584-5.5246 9.4126 0.0428zm-33.559-125.97 2.8773 8.9687 9.4126-0.0267-7.6264 5.4871 2.9521 8.9473-7.6157-5.5674-7.5836 5.5674 2.9414-8.9473-7.6264-5.4871 9.4126 0.0267zm-24.697 24.772 2.8666 8.9687 9.4233-0.0641-7.6584 5.5192 2.9414 8.942-7.5729-5.5727-7.5943 5.5727 2.9522-8.942-7.6799-5.5192 9.4501 0.0641zm-9.1131 33.661 2.8505 8.9473 9.4394-0.0482-7.6478 5.5246 2.9147 8.9313-7.5568-5.5727-7.5996 5.5727 2.9628-8.9313-7.6692-5.5246 9.4233 0.0482zm9.0062 33.639 2.888 9.0062 9.3912-0.0749-7.6371 5.5139 2.9682 8.9473-7.6103-5.5994-7.5943 5.5994 2.9628-8.9473-7.6638-5.4978 9.418 0.0588zm24.804 24.762 2.8773 8.9687 9.4126-0.0428-7.6264 5.4978 2.9521 8.9527-7.6157-5.562-7.5836 5.562 2.9414-8.9527-7.6264-5.4978 9.4126 0.0428zm67.193-116.83-2.888 8.9687-9.4661-0.0267 7.7013 5.4871-2.9949 8.9473 7.6478-5.5674 7.5408 5.5674-2.9414-8.9473 7.6478-5.4871-9.3591 0.0267zm24.708 24.772-2.888 8.9687-9.4661-0.0641 7.7012 5.5192-2.9949 8.942 7.6478-5.5727 7.5943 5.5727-2.9949-8.942 7.6478-5.5192-9.4126 0.0641zm9.0917 33.661-2.888 8.9473-9.4126-0.0482 7.6478 5.5246-2.9414 8.9313 7.5943-5.5727 7.5943 5.5727-2.9414-8.9313 7.6478-5.5246-9.4126 0.0482zm-9.0383 33.639-2.8345 9.0062-9.4661-0.0749 7.7012 5.5139-2.9949 8.9473 7.5943-5.5994 7.5943 5.5994-2.9414-8.9473 7.6478-5.4978-9.4126 0.0588zm-24.762 24.762-2.888 8.9687-9.4661-0.0428 7.7013 5.4978-2.9949 8.9527 7.6478-5.562 7.5408 5.562-2.9414-8.9527 7.6478-5.4978-9.3591 0.0428z" fill="#fc0" stroke-width="5.3481"/>
<path d="m407.97 119.12v-16.723c-6.0915-5.2144-30.409-15.648-45.229-18.927v11.776c16.953 4.1608 38.073 16.419 45.229 23.874zm12.327 24.96h14.402c0.43854-21.104-16.691-34.169-19.146-36.062v20.109c5.5085 8.9152 4.7438 15.953 4.7438 15.953zm35.848-42.48v18.157c7.2413 7.5782 11.584 13.509 15.033 24.409h15.247c-4.0752-16.665-13.766-30.286-30.281-42.565zm-9.2896 9.9581v-16.36c-13.996-9.0436-41.656-21.446-69.295-27.211v11.728c26.553 6.4391 54.775 20.194 69.295 31.842zm39.201-9.9314v-16.183c-16.782-10.589-51.352-25.382-92.147-33.998v11.712c39.169 9.4608 68.894 22.965 92.147 38.469zm10.857-9.295c-0.0214-0.01076-0.0428 17.403-0.0428 17.403 10.718 8.5034 21.061 19.697 27.96 34.431h16.205c-5.562-18.333-26.259-40.565-44.122-51.834zm32.891-0.78082v-16.189c-32.121-18.996-80.253-35.691-118.47-42.424v11.675c43.17 8.6564 94.592 29.995 118.47 46.938zm51.93 52.614h16.953c-12.194-29.201-42.731-52.614-57.011-61.524v17.178c21.606 16.007 29.575 27.452 40.057 44.346zm-8.8778-62.84v-16.772c-26.045-15.916-78.66-39.735-142.74-52.078v12.183c48.753 10.129 110.91 34.317 142.74 56.668zm63.91 62.84h18.558c-20.59-34.993-44.122-55.005-69.525-71.547v17.574c18.825 13.237 39.041 32.966 50.967 53.973zm-286.18-52.203v-11.06c-16.691-3.1393-46.02-5.1395-58.914-3.4602v8.6639c19.36-1.0054 47.865 2.5938 58.914 5.8562zm-71.889-5.0646v-8.2735c-30.976 3.2356-52.219 13.878-64.509 22.954v7.1183c17.552-14.162 41.865-20.023 64.509-21.799zm-71.659 29.222v-8.0542c-28.489 32.008 7.1557 58.663 10.948 61.321v-10.942c-19.922-15.06-17.584-33.415-10.948-42.325zm21.735 49.106v11.734c19.344 10.712 38.816 17.478 66.509 22.441l-0.19788-15.905c-18.82-1.1445-44.689-6.5086-66.311-18.269zm75.75 18.766-0.0855 16.547c16.205 1.3477 31.484 1.7542 39.833 1.7435v-18.617c-12.295 0.82895-35.089 0.98405-39.747 0.32623zm60.888-107.13v-11.279c-19.932-4.0432-58.588-7.0488-81.483-4.9095v8.7709c30.217-1.1124 60.112 2.7489 81.483 7.4178zm-80.574 154.44v-17.718c-29.66-2.6206-75.248-12.969-103.56-33.757v11.814c31.04 23.419 80.146 36.404 103.56 39.661zm-114.31-48.534v-11.691c-25.12-23.895-20.216-48.197-3.995-63.845v-7.3269c-31.179 28.323-19.756 62.583 3.995 82.863zm124.72 31.768v18.344c18.05 2.535 33.698 3.3533 49.021 3.3533v-20.248c-16.515 0.0963-41.688-0.75942-49.021-1.4493zm-120.32-121.52v6.8937c27.019-20.103 67.536-28.206 96.014-29.746v-8.4286c-35.271 2.305-75.782 15.82-96.014 31.281zm-43.961 100.48v12.68c38.758 34.95 102.52 53.984 141.04 60.626v-19.75c-35.495-3.979-99.629-17.74-141.04-53.556zm250.78-133.24v-11.135c-25.04-4.563-68.316-9.5314-108.85-5.8251v8.8254c34.067-2.3745 82.147 2.0537 108.85 8.1344zm-98.33 188.08v20.44c17.183 3.4388 45.448 5.0379 60.845 5.5994v-22.783c-9.1827 0.32623-49.384-1.9841-60.845-3.257zm-23.526-195.4v-8.5746c-30.131 2.5938-84.008 13.329-119.75 37.518v6.9418c34.784-23.687 88.623-34.201 119.75-35.886zm-129.56 42.945v-7.0595c-16.349 12.327-56.444 53.909-10.033 106.53v-12.766c-10.316-11.53-35.217-48.887 10.033-86.708zm268.84-53.887v-11.429c-30.345-5.9524-89.447-11.108-135.92-6.5461v8.835c41.084-3.1821 99.522 1.4547 135.92 9.1399zm-128.4 241.35v21.622c22.879 4.4496 51.374 7.2092 73.488 7.9579v-24.537c-26.462-0.44923-49.272-1.7007-73.488-5.0432zm-12.493 19.574v-20.922c-63.605-8.9955-133.69-32.163-177.11-74.739v13.499c51.449 51.245 136.79 74.873 177.11 82.163zm-153.28-233.29v6.8028c42.523-27.061 100.77-38.694 145.27-42.641v-8.6104c-42.779 3.7116-105.43 18.28-145.27 44.449zm-34.57 138.05v-13.905c-16.649-22.697-32.982-67.471 24.548-110.34v-7.0006c-64.61 46.197-48.507 102.74-24.548 131.25zm-44.612 8.7334v15.071c48.805 63.311 149.59 100.58 212.25 113.79v-23.12c-65.84-11.145-165.87-43.4-212.25-105.74zm392.01-194.38v-11.867c-29.997-6.268-102.93-14.349-167.14-7.6638v9.1185c53.695-4.7277 121.47 1.0375 167.14 10.413zm-180.12-9.3067v-8.9153c-55.727 5.685-124.92 24.96-165.35 51.378v7.0702c50.796-31.147 118.2-45.073 165.35-49.533zm13.975 311.62v23.703c14.311 3.642 68.632 11.413 92.581 11.605v-27.174c-36.559-1.1552-73.894-5.1288-92.581-8.1344zm-190.22-254.91v-7.1771c-16.354 10.546-93.8 68.691-46.227 152.6v-16.921c-29.757-61.856 15.6-106.74 46.227-128.5z" fill="#bdbcbc" stroke-width="5.3481"/>
</svg>
